<?xml version="1.0" standalone="no"?>
<!DOCTYPE svg PUBLIC "-//W3C//DTD SVG 20010904//EN"
 "http://www.w3.org/TR/2001/REC-SVG-20010904/DTD/svg10.dtd">
<svg version="1.0" xmlns="http://www.w3.org/2000/svg"
 width="1280.000000pt" height="640.000000pt" viewBox="0 0 1280.000000 640.000000"
 preserveAspectRatio="xMidYMid meet">
<metadata>
Created by potrace 1.15, written by Peter Selinger 2001-2017
</metadata>
<g transform="translate(0.000000,640.000000) scale(0.100000,-0.100000)"
fill="#000000" stroke="none">
<path d="M6845 3806 c-252 -49 -422 -204 -487 -443 -17 -63 -21 -107 -21 -223
0 -166 19 -257 75 -363 39 -73 130 -174 197 -216 145 -93 424 -126 630 -75
212 53 368 208 428 425 14 50 18 102 18 239 -1 163 -3 181 -28 256 -65 196
-204 326 -409 384 -95 27 -303 35 -403 16z m232 -367 c93 -45 128 -138 121
-319 -8 -182 -50 -255 -165 -281 -60 -14 -127 -6 -172 22 -67 41 -104 200 -82
361 16 122 60 201 126 229 39 16 127 10 172 -12z"/>
<path d="M980 3367 c0 -239 3 -536 7 -660 l6 -227 556 0 c444 1 569 4 621 15
83 18 90 18 90 0 0 -25 337 -21 450 5 106 24 107 24 115 0 6 -19 15 -20 167
-20 155 0 265 16 346 50 20 9 22 7 22 -20 l0 -30 182 0 c166 0 189 2 265 25
l83 26 0 618 0 619 -92 16 c-75 13 -147 16 -362 14 l-270 -3 -34 -138 c-19
-76 -36 -136 -39 -134 -2 3 -18 58 -36 123 l-32 119 -70 14 c-96 18 -695 28
-705 11 -6 -9 -29 -9 -96 -1 -54 7 -301 11 -631 11 l-543 0 0 -433z m1270 26
l0 -76 -112 6 c-62 4 -182 7 -265 7 l-153 0 0 63 c0 35 3 67 7 70 3 4 123 7
265 7 l258 0 0 -77z m4 -385 c3 -13 6 -53 6 -90 l0 -68 -270 0 -270 0 0 85 0
85 213 3 c116 1 235 3 263 5 46 2 52 0 58 -20z"/>
<path d="M3929 3793 c-2 -4 -3 -302 -1 -660 l3 -653 218 0 c207 0 221 1 277
24 l59 24 3 211 2 211 64 0 c83 0 278 33 348 60 103 38 184 131 214 242 29
110 10 272 -40 348 -55 83 -115 121 -263 167 l-88 27 -396 4 c-219 2 -399 0
-400 -5z m642 -323 c44 -24 61 -98 34 -149 -13 -25 -75 -61 -105 -61 -6 0 -10
45 -10 110 l0 110 31 0 c17 0 39 -5 50 -10z"/>
<path d="M5200 3238 c0 -310 3 -607 7 -661 l6 -97 521 2 521 3 3 193 2 192
-285 0 -285 0 0 449 0 449 -25 16 c-20 13 -59 16 -245 16 l-220 0 0 -562z"/>
<path d="M7676 3784 c-22 -8 -41 -15 -42 -17 -2 -2 105 -165 236 -362 l240
-360 0 -258 0 -257 56 -25 c55 -24 64 -25 275 -25 l219 0 0 275 0 276 197 292
c108 161 200 297 205 302 6 6 7 -199 3 -542 l-8 -552 39 -10 c22 -6 62 -17 89
-26 75 -22 1165 -23 1165 0 0 18 7 18 90 0 52 -11 177 -14 621 -15 l556 0 6
162 c3 90 3 166 -1 170 -13 13 -353 38 -512 38 l-160 0 0 85 0 85 305 0 305 0
0 155 0 155 -305 0 -306 0 3 68 3 67 325 6 c179 3 326 7 328 8 1 0 2 73 2 161
l0 160 -542 0 c-351 0 -573 -4 -632 -12 -68 -8 -91 -8 -94 0 -3 9 -212 12
-830 12 -744 -1 -834 -3 -897 -18 l-69 -17 -78 -130 c-43 -71 -81 -131 -85
-132 -5 -1 -48 65 -96 148 l-88 149 -242 -1 c-184 0 -251 -4 -281 -15z m2594
-384 l0 -70 -295 0 -295 0 0 70 0 70 295 0 295 0 0 -70z m-10 -476 l0 -96 -32
6 c-18 4 -149 9 -290 13 l-258 5 0 84 0 84 290 0 290 0 0 -96z"/>
</g>
</svg>
